<svg width="375" height="812" viewBox="0 0 375 812" fill="none" xmlns="http://www.w3.org/2000/svg">
<g clip-path="url(#clip0_2823_871)">
<rect width="375" height="812" fill="white"/>
<rect opacity="0.35" x="336.833" y="17.8333" width="21" height="10.3333" rx="2.16667" stroke="black"/>
<path opacity="0.4" d="M359.333 21V25C360.138 24.6612 360.661 23.8731 360.661 23C360.661 22.1269 360.138 21.3388 359.333 21Z" fill="black"/>
<rect x="338.333" y="19.3333" width="18" height="7.33333" rx="1.33333" fill="black"/>
<path fill-rule="evenodd" clip-rule="evenodd" d="M323.667 19.615C325.892 19.6151 328.031 20.4693 329.644 22.0008C329.765 22.1191 329.959 22.1176 330.079 21.9975L331.239 20.8272C331.3 20.7663 331.334 20.6837 331.333 20.5979C331.333 20.5121 331.298 20.4299 331.237 20.3697C327.005 16.3175 320.329 16.3175 316.097 20.3697C316.035 20.4299 316.001 20.512 316 20.5978C315.999 20.6837 316.033 20.7662 316.094 20.8272L317.255 21.9975C317.374 22.1178 317.568 22.1193 317.69 22.0008C319.302 20.4692 321.442 19.615 323.667 19.615ZM323.667 23.4226C324.889 23.4226 326.068 23.8765 326.974 24.6963C327.097 24.8126 327.29 24.8101 327.409 24.6906L328.569 23.5203C328.63 23.4589 328.663 23.3756 328.663 23.2891C328.662 23.2025 328.626 23.12 328.564 23.0598C325.805 20.4954 321.532 20.4954 318.773 23.0598C318.71 23.12 318.675 23.2026 318.674 23.2891C318.673 23.3757 318.707 23.459 318.768 23.5203L319.927 24.6906C320.047 24.8101 320.24 24.8126 320.362 24.6963C321.268 23.877 322.446 23.4231 323.667 23.4226ZM325.989 25.9845C325.991 26.0712 325.957 26.1549 325.895 26.2157L323.89 28.2377C323.831 28.2971 323.751 28.3306 323.667 28.3306C323.583 28.3306 323.503 28.2971 323.445 28.2377L321.439 26.2157C321.377 26.1549 321.343 26.0712 321.345 25.9844C321.347 25.8976 321.384 25.8154 321.449 25.7573C322.729 24.675 324.605 24.675 325.886 25.7573C325.95 25.8155 325.988 25.8977 325.989 25.9845Z" fill="black"/>
<path fill-rule="evenodd" clip-rule="evenodd" d="M310 17.6667H309C308.448 17.6667 308 18.1145 308 18.6667V27.3334C308 27.8857 308.448 28.3334 309 28.3334H310C310.552 28.3334 311 27.8857 311 27.3334V18.6667C311 18.1145 310.552 17.6667 310 17.6667ZM304.333 20.0001H305.333C305.886 20.0001 306.333 20.4478 306.333 21.0001V27.3334C306.333 27.8857 305.886 28.3334 305.333 28.3334H304.333C303.781 28.3334 303.333 27.8857 303.333 27.3334V21.0001C303.333 20.4478 303.781 20.0001 304.333 20.0001ZM300.667 22.3334H299.667C299.114 22.3334 298.667 22.7811 298.667 23.3334V27.3334C298.667 27.8857 299.114 28.3334 299.667 28.3334H300.667C301.219 28.3334 301.667 27.8857 301.667 27.3334V23.3334C301.667 22.7811 301.219 22.3334 300.667 22.3334ZM296 24.3334H295C294.448 24.3334 294 24.7811 294 25.3334V27.3334C294 27.8857 294.448 28.3334 295 28.3334H296C296.552 28.3334 297 27.8857 297 27.3334V25.3334C297 24.7811 296.552 24.3334 296 24.3334Z" fill="black"/>
<path d="M36.9142 29.995C38.2542 29.545 39.2942 28.995 40.0342 28.345C40.7842 27.705 41.2892 27.045 41.5492 26.365C41.3792 26.385 41.2042 26.405 41.0242 26.425C40.8642 26.445 40.6792 26.46 40.4692 26.47C40.2692 26.48 40.0592 26.485 39.8392 26.485C39.4492 26.485 39.0592 26.43 38.6692 26.32C38.2792 26.21 37.9292 26.035 37.6192 25.795C37.3192 25.545 37.0692 25.225 36.8692 24.835C36.6792 24.445 36.5842 23.97 36.5842 23.41C36.5842 22.45 36.8792 21.695 37.4692 21.145C38.0592 20.595 38.8692 20.315 39.8992 20.305C40.3892 20.305 40.8242 20.39 41.2042 20.56C41.5942 20.72 41.9242 20.975 42.1942 21.325C42.4642 21.675 42.6692 22.12 42.8092 22.66C42.9592 23.2 43.0342 23.845 43.0342 24.595C43.0342 25.295 42.9442 25.93 42.7642 26.5C42.5842 27.06 42.3392 27.56 42.0292 28C41.7292 28.45 41.3792 28.84 40.9792 29.17C40.5892 29.5 40.1792 29.785 39.7492 30.025C39.3292 30.275 38.9042 30.485 38.4742 30.655C38.0442 30.825 37.6442 30.965 37.2742 31.075L36.9142 29.995ZM39.7942 21.355C39.5542 21.355 39.3142 21.395 39.0742 21.475C38.8442 21.545 38.6392 21.66 38.4592 21.82C38.2792 21.97 38.1342 22.175 38.0242 22.435C37.9142 22.695 37.8592 23.01 37.8592 23.38C37.8592 24.03 38.0392 24.535 38.3992 24.895C38.7592 25.255 39.2992 25.435 40.0192 25.435C40.2492 25.435 40.4642 25.43 40.6642 25.42C40.8642 25.41 41.0442 25.395 41.2042 25.375C41.3842 25.355 41.5542 25.33 41.7142 25.3C41.7242 25.25 41.7342 25.185 41.7442 25.105C41.7542 25.035 41.7592 24.95 41.7592 24.85C41.7592 24.74 41.7592 24.61 41.7592 24.46C41.7192 22.39 41.0642 21.355 39.7942 21.355ZM44.3046 27.115C44.3046 26.875 44.3896 26.67 44.5596 26.5C44.7296 26.32 44.9396 26.23 45.1896 26.23C45.4496 26.23 45.6696 26.32 45.8496 26.5C46.0296 26.67 46.1196 26.875 46.1196 27.115C46.1196 27.365 46.0296 27.575 45.8496 27.745C45.6696 27.915 45.4496 28 45.1896 28C44.9396 28 44.7296 27.915 44.5596 27.745C44.3896 27.575 44.3046 27.365 44.3046 27.115ZM44.3046 22.09C44.3046 21.85 44.3896 21.645 44.5596 21.475C44.7296 21.295 44.9396 21.205 45.1896 21.205C45.4496 21.205 45.6696 21.295 45.8496 21.475C46.0296 21.645 46.1196 21.85 46.1196 22.09C46.1196 22.34 46.0296 22.55 45.8496 22.72C45.6696 22.89 45.4496 22.975 45.1896 22.975C44.9396 22.975 44.7296 22.89 44.5596 22.72C44.3896 22.55 44.3046 22.34 44.3046 22.09ZM48.5214 27.01C48.8714 27 49.2264 26.99 49.5864 26.98C49.8964 26.97 50.2314 26.965 50.5914 26.965C50.9514 26.955 51.3014 26.95 51.6414 26.95H52.5714V25.375C52.5714 24.835 52.5714 24.355 52.5714 23.935C52.5814 23.515 52.5914 23.16 52.6014 22.87C52.6114 22.53 52.6264 22.23 52.6464 21.97L48.5214 27.01ZM46.9914 27.19L52.5714 20.455H53.7714V26.95H54.8214V28H53.7714V30.925H52.5714V28H47.0664L46.9914 27.19ZM57.5846 21.835L55.6196 22.21L55.3796 21.19L58.0496 20.455H58.7846V28H57.5846V21.835Z" fill="black"/>
<path fill-rule="evenodd" clip-rule="evenodd" d="M146.501 422.231V382.804H182.797V390.567H156.196V422.231H146.501Z" fill="#F6C212"/>
<path d="M113.75 373V401.397C113.75 409.783 111.12 415.279 103.717 415.279C96.3142 415.279 93.686 409.783 93.686 401.397V373H84V404.427C84 417.603 91.332 423.031 103.717 423.031C116.101 423.031 123.434 417.603 123.434 404.427V380.75H134.628V422.185H144.314V380.75H182.856V373H113.75Z" fill="#231F20"/>
<path d="M158.329 422.231V392.886H182.797V400.644H167.441V422.231H158.329Z" fill="#231F20"/>
<path d="M197.642 408.815H196.856L196.241 406.901C196.218 406.833 196.195 406.753 196.172 406.662C195.489 404.475 194.247 403.381 192.447 403.381H187.593V411.926H194.463V412.917H187.593V422.111H192.447C192.72 422.111 192.982 422.089 193.233 422.043C194.623 421.77 195.625 420.619 196.241 418.591L196.856 416.677H197.642L197.505 423H181.202V422.111H183.936V403.381H181.202V402.492H197.505L197.642 408.815ZM206.529 409.26H204.17L208.272 420.334L212.51 409.26H209.844V408.405H215.21C215.21 408.656 215.188 408.85 215.142 408.986C215.097 409.169 214.857 409.26 214.424 409.26C214.31 409.26 214.196 409.271 214.083 409.294C213.718 409.362 213.399 409.715 213.125 410.354L208.238 423.171H207.486C207.053 423.171 206.7 423.103 206.426 422.966C205.993 422.761 205.538 422.02 205.059 420.744L200.821 409.26H199.385V408.405H206.529V409.26ZM223.892 408.85C223.459 408.85 223.06 408.929 222.696 409.089C221.101 409.795 220.258 411.607 220.167 414.523L223.208 414.592C224.166 414.637 224.906 414.592 225.43 414.455C226.364 414.204 226.832 413.521 226.832 412.404C226.832 411.949 226.775 411.504 226.661 411.071C226.273 409.59 225.35 408.85 223.892 408.85ZM230.01 419.616C229.874 419.935 229.714 420.254 229.532 420.573C228.392 422.419 226.535 423.342 223.96 423.342C222.434 423.342 221.067 422.977 219.859 422.248C217.649 420.926 216.543 418.75 216.543 415.72C216.543 413.965 216.965 412.427 217.808 411.105C219.13 409.032 221.146 407.995 223.858 407.995C225.293 407.995 226.581 408.291 227.72 408.884C229.429 409.772 230.284 411.071 230.284 412.78C230.284 413.441 230.101 413.988 229.737 414.421C228.962 415.241 227.014 415.617 223.892 415.549L220.167 415.48C220.167 415.503 220.167 415.526 220.167 415.549C220.28 420.106 221.762 422.385 224.61 422.385C224.974 422.385 225.339 422.339 225.704 422.248C227.276 421.883 228.438 420.915 229.19 419.343L230.01 419.616ZM239.102 422.146C239.262 422.146 239.398 422.157 239.512 422.18C239.808 422.225 239.957 422.499 239.957 423H232.232V422.146C232.802 422.146 233.246 422.1 233.565 422.009C234.226 421.826 234.556 421.223 234.556 420.197V409.26H232.232V408.405H237.632L237.803 411.481C238.031 410.957 238.327 410.467 238.692 410.012C239.831 408.667 241.244 407.995 242.93 407.995C243.728 407.995 244.457 408.177 245.118 408.542C246.804 409.431 247.647 411.094 247.647 413.532V422.146H249.117C249.276 422.146 249.413 422.157 249.527 422.18C249.823 422.225 249.971 422.499 249.971 423H242.178V422.146C242.748 422.146 243.192 422.1 243.511 422.009C244.058 421.804 244.332 421.2 244.332 420.197V413.088C244.332 412.587 244.275 412.108 244.161 411.652C243.773 410.285 242.896 409.602 241.529 409.602C241.028 409.602 240.538 409.738 240.059 410.012C238.76 410.764 238.031 412.062 237.872 413.908L237.837 422.146H239.102ZM251.304 409.328V408.474H253.697V405.227L256.978 404.509V408.474H261.934V409.328H256.978V419.719C257.001 421.428 257.593 422.305 258.755 422.351C259.895 422.328 260.715 421.302 261.216 419.274L262.139 419.445C262.071 419.81 261.98 420.163 261.866 420.505C261.228 422.419 259.94 423.376 258.003 423.376C257.821 423.376 257.627 423.365 257.422 423.342C254.939 423.114 253.697 421.507 253.697 418.522V409.328H251.304ZM267.164 415.651C267.164 416.403 267.198 417.087 267.266 417.702C267.585 420.892 268.884 422.487 271.163 422.487C273.737 422.442 275.048 420.118 275.093 415.515C275.093 414.626 275.048 413.817 274.957 413.088C274.569 410.262 273.293 408.85 271.128 408.85C268.713 409.032 267.391 411.299 267.164 415.651ZM271.231 407.995C272.917 407.995 274.41 408.439 275.708 409.328C277.714 410.741 278.716 412.826 278.716 415.583C278.716 417.634 278.09 419.377 276.836 420.812C275.355 422.499 273.43 423.342 271.06 423.342C269.328 423.342 267.802 422.84 266.48 421.838C264.52 420.38 263.541 418.272 263.541 415.515C263.541 413.532 264.144 411.857 265.352 410.49C266.833 408.827 268.793 407.995 271.231 407.995ZM286.509 422.419C288.059 422.419 289.05 421.929 289.483 420.949C289.62 420.653 289.688 420.345 289.688 420.026C289.688 419.001 288.97 418.124 287.535 417.395C287.238 417.235 286.749 417.007 286.065 416.711C284.265 415.936 283.069 415.218 282.476 414.558C281.838 413.828 281.519 412.974 281.519 411.994C281.519 410.285 282.453 409.1 284.322 408.439C285.165 408.143 286.088 407.995 287.09 407.995C288.731 407.995 290.075 408.314 291.124 408.952C291.124 408.291 291.294 407.915 291.636 407.824C291.75 407.801 291.875 407.79 292.012 407.79V412.062H291.055C290.964 409.966 289.813 408.907 287.603 408.884C286.008 408.884 285.017 409.374 284.629 410.354C284.538 410.604 284.493 410.866 284.493 411.14C284.493 412.119 285.188 412.963 286.578 413.669C286.874 413.806 287.352 414.011 288.013 414.284C289.836 415.059 291.044 415.777 291.636 416.438C292.32 417.212 292.662 418.112 292.662 419.138C292.662 421.006 291.682 422.271 289.722 422.932C288.925 423.205 288.036 423.342 287.056 423.342C285.256 423.319 283.718 422.932 282.442 422.18C282.442 422.772 282.294 423.114 281.998 423.205C281.861 423.228 281.701 423.239 281.519 423.239V418.044H282.579C282.624 420.938 283.934 422.396 286.509 422.419Z" fill="black"/>
</g>
<defs>
<clipPath id="clip0_2823_871">
<rect width="375" height="812" fill="white"/>
</clipPath>
</defs>
</svg>
